<?xml version="1.0" encoding="UTF-8" standalone="no"?>
<svg
   xmlns:dc="http://purl.org/dc/elements/1.1/"
   xmlns:cc="http://creativecommons.org/ns#"
   xmlns:rdf="http://www.w3.org/1999/02/22-rdf-syntax-ns#"
   xmlns:svg="http://www.w3.org/2000/svg"
   xmlns="http://www.w3.org/2000/svg"
   xmlns:sodipodi="http://sodipodi.sourceforge.net/DTD/sodipodi-0.dtd"
   xmlns:inkscape="http://www.inkscape.org/namespaces/inkscape"
   viewBox="1 1441 240 360"
   version="1.1"
   id="svg138"
   sodipodi:docname="background.svg"
   inkscape:version="1.0.1 (3bc2e813f5, 2020-09-07)">
  <metadata
     id="metadata144">
    <rdf:RDF>
      <cc:Work
         rdf:about="">
        <dc:format>image/svg+xml</dc:format>
        <dc:type
           rdf:resource="http://purl.org/dc/dcmitype/StillImage" />
        <dc:title></dc:title>
      </cc:Work>
    </rdf:RDF>
  </metadata>
  <defs
     id="defs142" />
  <sodipodi:namedview
     pagecolor="#ffffff"
     bordercolor="#666666"
     borderopacity="1"
     objecttolerance="10"
     gridtolerance="10"
     guidetolerance="10"
     inkscape:pageopacity="0"
     inkscape:pageshadow="2"
     inkscape:window-width="1920"
     inkscape:window-height="1017"
     id="namedview140"
     showgrid="false"
     inkscape:zoom="1.6695577"
     inkscape:cx="77.321514"
     inkscape:cy="205.37107"
     inkscape:window-x="-8"
     inkscape:window-y="-8"
     inkscape:window-maximized="1"
     inkscape:current-layer="svg138" />
  <rect
     width="240"
     height="360"
     rx="40"
     ry="40"
     x="-1260"
     y="692.36218"
     id="rect2987-1-7-3"
     style="fill:#000900;fill-opacity:1;fill-rule:evenodd;stroke:#000000;stroke-width:2;stroke-miterlimit:4;stroke-dasharray:none"
     transform="translate(1261,748.63789)" />
  <path
     style="fill:none;stroke:#ff0000;stroke-width:4.02004004;stroke-linecap:butt;stroke-linejoin:miter;stroke-opacity:1;stroke-miterlimit:4;stroke-dasharray:none"
     d="m 53.708571,1579.959 c -0.278288,2.1749 0.333947,4.4179 0,6.5885 -0.221015,1.4366 -0.930058,2.7642 -1.197922,4.1928 -2.459562,13.1176 -4.673459,40.0943 4.791689,50.9117 2.786575,3.1846 7.463036,4.1927 11.380259,4.1927 3.653793,0 7.233737,0.2251 10.182338,-2.3959 5.084666,-4.5197 5.369394,-12.9646 5.98961,-19.1667 0.655686,-6.5569 1.483468,-13.184 1.796883,-19.7657 0.21427,-4.4997 0.501734,-9.8595 0,-14.3751 -0.725233,-6.5271 -0.598961,1.5865 -0.598961,-2.9948"
     id="path993" />
  <path
     style="fill:none;stroke:#ff0000;stroke-width:4.02004004;stroke-linecap:butt;stroke-linejoin:miter;stroke-opacity:1;stroke-miterlimit:4;stroke-dasharray:none"
     d="m 108.81298,1639.7054 c -1.30287,-9.5211 -0.0583,-15.3398 2.39585,-25.1564 0.79861,-2.9948 1.59723,-5.9896 2.39584,-8.9844 0.19965,-1.5972 0.23701,-3.2233 0.59896,-4.7917 0.0277,-0.12 1.60564,-5.9896 1.79689,-5.9896 0.19965,0 -0.0631,0.4095 0,0.599 0.14117,0.4235 0.3993,0.7986 0.59896,1.1979 0.19965,0.5989 0.42551,1.1898 0.59896,1.7969 2.29118,8.3737 2.22722,18.4302 6.58857,25.1563 1.79807,2.773 2.82517,5.9758 4.19273,8.9844 0.24874,0.5473 1.75531,5.3907 2.9948,5.3907 0.21808,0 1.78807,-5.3466 1.79688,-5.3907 1.62021,-8.101 0.98883,-16.467 2.39585,-24.5574 0.63907,-3.6746 2.15611,-7.1469 2.9948,-10.7813 0.28394,-1.2303 1.19793,-4.8565 1.19793,-3.5937"
     id="path999"
     sodipodi:nodetypes="cccsscccssscssc" />
  <path
     style="fill:none;stroke:#ff0000;stroke-width:4.94054842;stroke-linecap:butt;stroke-linejoin:miter;stroke-opacity:1;stroke-miterlimit:4;stroke-dasharray:none"
     d="m 173.16763,1589.4246 c -9.12455,5.1375 -13.26854,16.7197 -15.06829,26.6107 -3.42298,18.812 -0.76462,15.9531 2.26024,23.0148 1.1439,2.6705 13.73439,2.3663 16.57511,2.1576 5.03851,-0.37 6.83784,-1.4058 9.7944,-5.0345 0.98725,-1.2117 2.39517,-2.179 3.01365,-3.596 1.36601,-3.1296 1.00455,-6.7127 1.50682,-10.0689 1.02339,-6.8386 4.08595,-21.2042 -5.27389,-24.4532 -1.6689,-0.5794 -3.53257,-0.3868 -5.2739,-0.7193 -4.56125,-0.8708 -0.31217,-0.7191 -3.76708,-0.7191"
     id="path1001"
     sodipodi:nodetypes="csscsssscc" />
  <path
     style="fill:#ff0000;fill-opacity:1;stroke:#ff0000;stroke-width:4.02004;stroke-miterlimit:4;stroke-dasharray:none;stroke-opacity:1"
     id="path1003"
     d="m 138.72004,1479.7747 c -5.76847,1.5699 -11.32857,3.7386 -16.82967,6.057 -11.42241,5.1367 -22.31158,11.4222 -32.852403,18.1659 -8.201749,5.534 -16.195125,11.3756 -23.960138,17.5065 -7.647045,5.9199 -13.307974,13.2975 -18.756425,21.1803 -5.359442,8.4631 -10.760055,16.9513 -15.297651,25.8955 -0.896376,1.7668 -1.70385,3.5774 -2.555775,5.3661 -4.338062,9.6491 -6.527943,20.0314 -8.266063,30.4107 -1.609603,9.827 -2.075103,19.7771 -2.331624,29.715 -0.191498,9.8807 -0.249005,19.7647 0.259364,29.6361 0.32745,8.7272 2.21101,17.2147 4.706904,25.545 2.458559,7.7067 6.090871,14.8932 10.331387,21.7524 3.405986,5.6154 7.704938,10.5358 12.416074,15.075 3.392225,3.0975 7.047969,6.0054 11.173911,8.0758 0.842363,0.4228 1.71995,0.7713 2.579924,1.1569 6.453903,2.5912 13.331628,3.4448 20.206013,4.0087 5.27912,0.2454 10.573101,0.6706 15.862932,0.535 2.921127,-0.075 4.59324,-0.2796 7.51792,-0.5495 8.2424,-0.8165 16.26559,-2.8539 24.18685,-5.1906 8.22242,-2.4089 16.04104,-5.9005 23.67607,-9.744 7.41988,-4.0572 14.92468,-8.0597 21.72702,-13.1163 2.13507,-1.5872 3.8799,-3.1035 5.91596,-4.813 5.63001,-4.7581 10.18862,-10.5537 14.65544,-16.3703 4.30028,-5.9178 8.18002,-12.1206 11.91117,-18.4078 4.0879,-6.5999 7.60765,-13.5054 10.92022,-20.5179 3.21596,-6.7272 6.21589,-13.5415 8.83643,-20.5224 2.80825,-7.5518 5.31627,-15.197 7.37982,-22.9849 2.11192,-8.2765 3.3645,-16.7395 4.40053,-25.2083 1.14246,-8.3752 0.83279,-16.7753 -0.12362,-25.1419 -1.12407,-7.9824 -3.13355,-15.6635 -5.9706,-23.1987 -1.64781,-4.2861 -3.6184,-8.4393 -6.29794,-12.1825 -1.74212,-2.4336 -2.33128,-2.9911 -4.31115,-5.2467 -4.95794,-5.1892 -10.70939,-9.5141 -16.6755,-13.4645 -5.65443,-3.7744 -11.54031,-6.8194 -17.84447,-9.334 -5.0887,-1.8823 -10.22495,-3.6157 -15.43137,-5.1401 -3.28291,-0.997 -6.55502,-2.0404 -9.77512,-3.2265 -1.79942,-0.6565 -3.60968,-1.3075 -5.46651,-1.7848 -1.12786,-0.203 -2.2097,-0.5784 -3.33534,-0.7899 -1.46036,-0.1563 -2.90443,-0.4235 -4.36204,-0.6013 -1.28752,-0.149 -2.58371,-0.1842 -3.87844,-0.2035 -1.20033,-0.011 -2.40074,-0.01 -3.6011,-0.01 -1.19656,0 -2.39312,0 -3.58968,0 -1.22807,-0.085 -2.42725,0.1138 -3.63299,0.3085 0,0 -7.1036,5.3239 -7.1036,5.3239 v 0 c 1.18672,-0.1635 2.34713,-0.5049 3.5539,-0.4136 1.19672,-10e-5 2.39344,-4e-4 3.59016,0 1.19902,0 2.39805,-0.01 3.59708,0 1.28197,0.01 2.56549,0.014 3.84392,0.1209 1.44692,0.1374 2.87132,0.4088 4.30962,0.586 1.13893,0.1428 2.20497,0.5234 3.33036,0.717 1.87637,0.3829 3.68307,1.0368 5.49918,1.6326 3.27408,1.1753 6.59968,2.2165 9.93867,3.1904 5.24209,1.4469 10.4061,3.1281 15.52092,4.9785 6.24916,2.4303 12.21605,5.4368 17.81551,9.1455 5.9243,3.8786 11.59874,8.18 16.52114,13.2963 1.93117,2.2016 2.53992,2.7868 4.24367,5.1585 2.64681,3.6846 4.60894,7.7731 6.2626,11.9856 0.43951,1.1456 0.91271,2.279 1.31853,3.437 2.21574,6.3229 3.61128,12.9286 4.63475,19.5369 0.1606,1.3911 0.35802,2.7786 0.48181,4.1735 0.61545,6.9358 0.33744,13.898 -0.46951,20.8063 -1.03486,8.4302 -2.24242,16.8615 -4.41492,25.0861 -2.12368,7.772 -4.67895,15.4037 -7.50014,22.9506 -2.65948,6.9449 -5.66152,13.739 -8.8523,20.4563 -3.32171,6.9842 -6.86707,13.8527 -10.93566,20.4377 -3.76973,6.2689 -7.69542,12.4477 -12.02316,18.3503 -4.45095,5.7769 -9.03354,11.4988 -14.67495,16.1795 -2.96849,2.4569 -5.93485,4.8337 -9.13962,6.9812 -1.1617,0.7784 -2.6709,1.1683 -3.52385,2.2764 -0.73248,0.9517 4.21028,-2.3102 3.13628,-1.7729 -1.36555,0.6831 -2.67455,1.474 -4.01182,2.2109 -7.59141,3.8576 -15.35939,7.3956 -23.54175,9.8274 -7.8776,2.3385 -15.83901,4.4861 -24.04635,5.2858 -2.71463,0.2586 -4.7298,0.4919 -7.44773,0.5905 -5.295961,0.1921 -10.601742,-0.1643 -15.887558,-0.4279 -6.749779,-0.5751 -13.498401,-1.4258 -19.855548,-3.9126 -0.84284,-0.3655 -1.704295,-0.6907 -2.528522,-1.0964 -4.080295,-2.0085 -7.722876,-4.856 -11.095776,-7.8705 -4.705886,-4.4485 -8.996481,-9.304 -12.428344,-14.8213 -4.240831,-6.7722 -7.860494,-13.8843 -10.285959,-21.5252 -2.468497,-8.2619 -4.331703,-16.677 -4.702608,-25.3261 -0.52501,-9.8453 -0.487547,-19.7062 -0.263914,-29.5613 0.283247,-9.9028 0.735962,-19.8232 2.377962,-29.6111 1.753491,-10.2844 3.89254,-20.5787 8.212757,-30.1397 0.844264,-1.771 1.643974,-3.5639 2.532791,-5.3129 4.558649,-8.9707 10.007277,-17.4723 15.504547,-25.8852 2.368037,-3.3441 3.335122,-4.8224 5.870257,-7.9755 3.854121,-4.7937 8.188339,-9.1895 13.019852,-13.0032 7.764542,-6.1 15.745683,-11.929 23.955073,-17.4173 1.425582,-0.9037 2.946617,-1.6721 4.27675,-2.7112 0.77313,-0.604 -3.436583,1.8937 -2.591767,1.3949 5.543817,-3.2734 11.330637,-6.1558 17.182627,-8.8288 5.29164,-2.2418 10.63481,-4.3578 16.22238,-5.7527 0,0 7.05394,-5.3939 7.05394,-5.3939 z" />
</svg>
